# xmcd CD database file
#
# Track frame offsets:
#	150
#	15542
#	25714
#	34967
#	45581
#	60863
#	81020
#	94580
#	105967
#	124141
#	143131
#	160087
#	173461
#	187589
#	202948
#	218969
#	238238
#
# Disc length: 3457 seconds
#
# Revision: 0
# Processed by: cddbd v1.5.2PL0 Copyright (c) Steve Scherf et al.
# Submitted via: CDex 1.70beta2
#
DISCID=c70d7f11
DTITLE=Lew Green, Marry Green, Ian Finkel, Vince Giordano - Green's New Novelty Orchestra
DYEAR=2004
DGENRE=Jazz
TTITLE0=New Orleans Wiggle
TTITLE1=Triplets
TTITLE2=Saxophobia
TTITLE3=Log Cabin Blues
TTITLE4=Xylophonia
TTITLE5=Ragging the Scale
TTITLE6=Nola
TTITLE7=On the Woodpile
TTITLE8=I can't give you anything but Love, Baby
TTITLE9=Jovial Jasper
TTITLE10=Steamboat Willie
TTITLE11=My Desert Love
TTITLE12=Blue Skies
TTITLE13=Yes, we have no Bananas
TTITLE14=A Bunch of Roses
TTITLE15=Fascinating Rhythm
TTITLE16=Sweet Georgia Brown
EXTD=YEAR: 2004
EXTT0=
EXTT1=
EXTT2=
EXTT3=
EXTT4=
EXTT5=
EXTT6=
EXTT7=
EXTT8=
EXTT9=
EXTT10=
EXTT11=
EXTT12=
EXTT13=
EXTT14=
EXTT15=
EXTT16=
PLAYORDER=
